<?xml version="1.0" encoding="utf-8"?>
<!-- Generator: Adobe Illustrator 28.2.0, SVG Export Plug-In . SVG Version: 6.00 Build 0)  -->
<svg version="1.1" id="Layer_1" xmlns="http://www.w3.org/2000/svg" xmlns:xlink="http://www.w3.org/1999/xlink" x="0px" y="0px"
	 viewBox="0 0 200 200" style="enable-background:new 0 0 200 200;" xml:space="preserve">
<style type="text/css">
	.st0{fill-rule:evenodd;clip-rule:evenodd;fill:url(#SVGID_1_);}
	
		.st1{fill-rule:evenodd;clip-rule:evenodd;fill:url(#SVGID_00000031901443473339793670000012521936072875774368_);fill-opacity:0.75;}
	.st2{fill-rule:evenodd;clip-rule:evenodd;fill:url(#SVGID_00000025441325383305602240000003624170275541190534_);}
	.st3{fill-rule:evenodd;clip-rule:evenodd;fill:url(#SVGID_00000013176270063946537460000009637040541672660904_);}
	
		.st4{fill-rule:evenodd;clip-rule:evenodd;fill:url(#SVGID_00000025424340658001750150000000771590258487549352_);fill-opacity:0.75;}
	.st5{fill-rule:evenodd;clip-rule:evenodd;fill:url(#SVGID_00000003076974435095974900000009760587544514721416_);}
	.st6{fill-rule:evenodd;clip-rule:evenodd;fill:url(#SVGID_00000083080438481741894740000006016302082767106198_);}
	
		.st7{fill-rule:evenodd;clip-rule:evenodd;fill:url(#SVGID_00000070100498524968242680000018048318934299201451_);stroke:url(#SVGID_00000044177099704054992240000004856085713474218411_);stroke-width:2.2521;stroke-linejoin:round;stroke-miterlimit:1.8017;}
</style>
<g transform="translate(81.0558 -16.7702)">
	
		<linearGradient id="SVGID_1_" gradientUnits="userSpaceOnUse" x1="461.8784" y1="-439.6242" x2="429.0176" y2="-331.8401" gradientTransform="matrix(0.4504 0 0 -0.4504 -184.8239 -110.2305)">
		<stop  offset="0" style="stop-color:#000000"/>
		<stop  offset="1" style="stop-color:#000000;stop-opacity:0"/>
	</linearGradient>
	<path class="st0" d="M10.9,33.3l-6,12.4c-1,2.1-1,4.6-0.8,6.9c0.7,8.5,7.4,11,9.4,16.1c2.5-0.6,11.1,2.5,11.5,1
		C27,60.2,10.6,34.9,10.9,33.3z"/>
	
		<linearGradient id="SVGID_00000014604122949733553570000011895287028100250758_" gradientUnits="userSpaceOnUse" x1="379.5896" y1="-512.7889" x2="329.2288" y2="-425.6133" gradientTransform="matrix(0.4504 0 0 -0.4504 -184.8239 -110.2305)">
		<stop  offset="0" style="stop-color:#000000"/>
		<stop  offset="1" style="stop-color:#B5B2B2"/>
	</linearGradient>
	
		<path style="fill-rule:evenodd;clip-rule:evenodd;fill:url(#SVGID_00000014604122949733553570000011895287028100250758_);fill-opacity:0.75;" d="
		M-37.8,71.4c0,0,5.4,27.6,5.6,41.6c1.5,0.5,2.8,0.1,3.5-1.5c2.2-5-2.5-35.7-4.6-48.4L-37.8,71.4z"/>
	
		<linearGradient id="SVGID_00000096741980145731510320000014869713267669654407_" gradientUnits="userSpaceOnUse" x1="609.3212" y1="-500.1547" x2="555.9439" y2="-529.8519" gradientTransform="matrix(0.4504 0 0 -0.4504 -184.8239 -110.2305)">
		<stop  offset="0" style="stop-color:#000000"/>
		<stop  offset="1" style="stop-color:#000000;stop-opacity:0"/>
	</linearGradient>
	<path style="fill-rule:evenodd;clip-rule:evenodd;fill:url(#SVGID_00000096741980145731510320000014869713267669654407_);" d="
		M81.9,109.1c-0.6,0-1.2,0.1-1.9,0.3c-6.6,1.6-8.7,5.3-9.2,10.5c1.3-0.9,2.9-1.6,5.1-2.2c10.3-2.5,16.8,13.7,22.6,2.1l4.4-8.8
		C94.5,105.1,90.5,108.8,81.9,109.1z"/>
	
		<linearGradient id="SVGID_00000015345606207789184320000015982337361138501524_" gradientUnits="userSpaceOnUse" x1="545.0489" y1="-692.2354" x2="460.7757" y2="-724.0288" gradientTransform="matrix(0.4504 0 0 -0.4504 -184.8239 -110.2305)">
		<stop  offset="0" style="stop-color:#000000"/>
		<stop  offset="1" style="stop-color:#000000;stop-opacity:0"/>
	</linearGradient>
	<path style="fill-rule:evenodd;clip-rule:evenodd;fill:url(#SVGID_00000015345606207789184320000015982337361138501524_);" d="
		M44.9,190.7l-4.7,9.6c-0.5,1-0.3,2.6,0.1,4.4c2,9.4,48.9,9.1,54.3-1.3l5.5-10.6C91.2,201.3,48.8,190.3,44.9,190.7z"/>
	
		<linearGradient id="SVGID_00000085941061174875009400000001314034221392609674_" gradientUnits="userSpaceOnUse" x1="328.2125" y1="-615.1799" x2="276.9098" y2="-523.5737" gradientTransform="matrix(0.4504 0 0 -0.4504 -184.8239 -110.2305)">
		<stop  offset="0" style="stop-color:#000000"/>
		<stop  offset="1" style="stop-color:#B5B2B2"/>
	</linearGradient>
	
		<path style="fill-rule:evenodd;clip-rule:evenodd;fill:url(#SVGID_00000085941061174875009400000001314034221392609674_);fill-opacity:0.75;" d="
		M-64.5,109.2l-6.6,15.8c-4.2,10-4.9,21.5,5.2,26.2s10.8-9.1,21-3.2c10.9,6.2,0.1,52.5-0.8,56.4l4.1-8.2
		c0.4-1.8,26.9-55.2,15.8-61.6C-36.2,128.8-64.8,110.1-64.5,109.2z"/>
	
		<linearGradient id="SVGID_00000135652039583033609360000003747990367284186548_" gradientUnits="userSpaceOnUse" x1="374.8406" y1="-688.6694" x2="374.8406" y2="-716.294" gradientTransform="matrix(0.4504 0 0 -0.4504 -184.8239 -110.2305)">
		<stop  offset="0" style="stop-color:#000000"/>
		<stop  offset="1" style="stop-color:#B5B2B2"/>
	</linearGradient>
	<path style="fill-rule:evenodd;clip-rule:evenodd;fill:url(#SVGID_00000135652039583033609360000003747990367284186548_);" d="
		M13.9,196.1c-13.2,4-55.5,0.2-55.5,0.2s0-0.1,0-0.1l-4.1,8.2c0,0.2-0.1,0.3-0.1,0.3s50.9,9.1,55.5,0L13.9,196.1z"/>
	
		<linearGradient id="SVGID_00000139276519951631372060000005109395468274642588_" gradientUnits="userSpaceOnUse" x1="497.3476" y1="-621.8524" x2="396.4197" y2="-677.4035" gradientTransform="matrix(0.4504 0 0 -0.4504 -184.8239 -110.2305)">
		<stop  offset="0" style="stop-color:#000000"/>
		<stop  offset="1" style="stop-color:#000000;stop-opacity:0"/>
	</linearGradient>
	<path style="fill-rule:evenodd;clip-rule:evenodd;fill:url(#SVGID_00000139276519951631372060000005109395468274642588_);" d="
		M21.4,157.8C14.7,158,4,165.5,1.1,172.3c-0.5,1.1,4.7,3.6,4.6,4.5c4.3-4.4,10.7-4.6,19.5-3.4c11.2,1.5,21.9,5.3,23.3,14
		c4,2.3,11.1-12.3,10.8-16.7C58.7,161.3,24,157.7,21.4,157.8L21.4,157.8z"/>
	
		<linearGradient id="SVGID_00000094597575118249365650000012594152911544813745_" gradientUnits="userSpaceOnUse" x1="436.2635" y1="-494.3922" x2="574.5989" y2="-642.4493" gradientTransform="matrix(0.4504 0 0 -0.4504 -184.8239 -110.2305)">
		<stop  offset="0" style="stop-color:#E9E9E9"/>
		<stop  offset="1" style="stop-color:#BDBDBD"/>
	</linearGradient>
	
		<linearGradient id="SVGID_00000168112293282111160940000003856663552088995476_" gradientUnits="userSpaceOnUse" x1="459.3025" y1="-517.8552" x2="539.7369" y2="-608.6936" gradientTransform="matrix(0.4504 0 0 -0.4504 -184.8239 -110.2305)">
		<stop  offset="0" style="stop-color:#F6F6F6"/>
		<stop  offset="1" style="stop-color:#888585"/>
	</linearGradient>
	
		<path style="fill-rule:evenodd;clip-rule:evenodd;fill:url(#SVGID_00000094597575118249365650000012594152911544813745_);stroke:url(#SVGID_00000168112293282111160940000003856663552088995476_);stroke-width:2.2521;stroke-linejoin:round;stroke-miterlimit:1.8017;" d="
		M-33.6,63c0,0,49.5,12.1,51.6,2.5c2-9.4-8.9-10.4-9.8-21.3c-0.9-10.6,7.8-21.1,23-20.9C46.4,23.5,55,33,55.6,43.5
		c0.8,14-11.1,14-7.2,22c4.1,8.6,49.8-2.3,55.7,4.9c6.6,8,5.4,30.1-1.5,41.1c-6.9,11-12.2-4.6-22.6-2.1s-9.7,10.1-9.1,20.5
		c0.6,10.3,1.9,15.8,12.3,17.4c10.3,1.6,15.5-18.4,19.4-9.1c3.9,9.3,4.3,47-3.8,56.8c-7.4,9-52.4,10.7-54.3,1.3
		c-2.3-10.7,9-6.9,8.4-16.3S41,166.6,29.4,165c-11.6-1.6-18.9-0.6-23,8.8c-4.1,9.4,10.5,13.4,7.4,22.6c-3.3,9.6-55.5,0-55.5,0
		s12.2-50.2,0.8-56.7c-10.3-5.9-11,7.9-21,3.2c-10-4.7-7.3-15.5-5.2-26.2c2.2-10.7,8.5-17,16-16.4c6.1,0.5,19.2,18.5,22.3,11.3
		C-25.6,104.3-33.6,63-33.6,63L-33.6,63z"/>
</g>
</svg>
